<svg width="37" height="19" viewBox="0 0 37 19" fill="none" xmlns="http://www.w3.org/2000/svg">
<path d="M14.6048 9.9894C14.6318 9.7644 14.6498 9.5304 14.6498 9.2874C14.6498 9.0444 14.6318 8.8104 14.5958 8.5854L16.1168 7.3974C16.2518 7.2894 16.2878 7.0914 16.2068 6.9384L14.7668 4.4454C14.6768 4.2834 14.4878 4.2294 14.3258 4.2834L12.5348 5.0034C12.1568 4.7154 11.7608 4.4814 11.3198 4.3014L11.0498 2.3934C11.0228 2.2134 10.8698 2.0874 10.6898 2.0874H7.80984C7.62984 2.0874 7.48584 2.2134 7.45884 2.3934L7.18884 4.3014C6.74784 4.4814 6.34284 4.7244 5.97384 5.0034L4.18284 4.2834C4.02084 4.2204 3.83184 4.2834 3.74184 4.4454L2.30184 6.9384C2.21184 7.1004 2.24784 7.2894 2.39184 7.3974L3.91284 8.5854C3.87684 8.8104 3.84984 9.0534 3.84984 9.2874C3.84984 9.5214 3.86784 9.7644 3.90384 9.9894L2.38284 11.1774C2.24784 11.2854 2.21184 11.4834 2.29284 11.6364L3.73284 14.1294C3.82284 14.2914 4.01184 14.3454 4.17384 14.2914L5.96484 13.5714C6.34284 13.8594 6.73884 14.0934 7.17984 14.2734L7.44984 16.1814C7.48584 16.3614 7.62984 16.4874 7.80984 16.4874H10.6898C10.8698 16.4874 11.0228 16.3614 11.0408 16.1814L11.3108 14.2734C11.7518 14.0934 12.1568 13.8504 12.5258 13.5714L14.3168 14.2914C14.4788 14.3544 14.6678 14.2914 14.7578 14.1294L16.1978 11.6364C16.2878 11.4744 16.2518 11.2854 16.1078 11.1774L14.6048 9.9894ZM9.24984 11.9874C7.76484 11.9874 6.54984 10.7724 6.54984 9.2874C6.54984 7.8024 7.76484 6.5874 9.24984 6.5874C10.7348 6.5874 11.9498 7.8024 11.9498 9.2874C11.9498 10.7724 10.7348 11.9874 9.24984 11.9874Z" fill="black"/>
<path d="M24.25 7.8999L28 11.6499L31.75 7.8999H24.25Z" fill="black"/>
</svg>
