<svg width="8" height="12" viewBox="0 0 8 12" fill="none" xmlns="http://www.w3.org/2000/svg">
<mask id="mask0" mask-type="alpha" maskUnits="userSpaceOnUse" x="0" y="0" width="8" height="12">
<path fill-rule="evenodd" clip-rule="evenodd" d="M0.767275 6.88024H7.31227C7.90077 6.88024 8.19503 7.59249 7.77978 8.00774L4.50728 11.2802C4.24878 11.5387 3.83078 11.5387 3.57503 11.2802L0.299775 8.00774C-0.115475 7.59249 0.178775 6.88024 0.767275 6.88024ZM7.77978 3.99274L4.50728 0.720242C4.24878 0.461742 3.83078 0.461742 3.57503 0.720242L0.299775 3.99274C-0.115475 4.40799 0.178775 5.12024 0.767275 5.12024H7.31227C7.90077 5.12024 8.19503 4.40799 7.77978 3.99274Z" fill="white"/>
</mask>
<g mask="url(#mask0)">
<rect x="-1.45996" y="0.5" width="11" height="11" fill="#CDCDCD"/>
</g>
</svg>
